# xmcd
#
# Track frame offsets:
# 150
# 17181
# 37257
# 54125
# 70976
# 89950
# 106256
# 121434
# 136853
# 152039
#
# Disc length: 2237 seconds
#
#
# Revision: 0
# Processed by: cddbd v1.5.1PL2 Copyright (c) Steve Scherf et al.
# Submitted via: FreeRIP 2.944 
#
DISCID=8a08bb0a
DTITLE=Javier Estrada - Mi Alma Llora
DYEAR=2005
DGENRE=Pop
TTITLE0=Mi alma llora
TTITLE1=Si me hablan de ti
TTITLE2=Rosita linda
TTITLE3=Empezar de nuevo
TTITLE4=Sexo o amor
TTITLE5=Celos
TTITLE6=Niña, me torturas
TTITLE7=Inmoral
TTITLE8=Algo Salvaje
TTITLE9=Yo te bailo
EXTD=
EXTT0=
EXTT1=
EXTT2=
EXTT3=
EXTT4=
EXTT5=
EXTT6=
EXTT7=
EXTT8=
EXTT9=
PLAYORDER=
